<svg width="554" height="580" viewBox="0 0 554 580" fill="none" xmlns="http://www.w3.org/2000/svg">
<path d="M21.2322 37C21.2322 94.0526 21.8402 116.981 21.8402 177.656M21.8402 177.656C21.8402 238.33 21.7462 348.917 21.2322 423.242C20.7183 497.568 20.3196 569.913 20.3196 569.913C20.3196 580.411 19.1954 568.022 19.2774 562.437C19.3799 555.454 20.3634 356.796 20.3634 339.454C20.3634 322.111 21.2322 233.829 21.8402 177.656Z" stroke="black" stroke-width="6" stroke-miterlimit="10" stroke-linecap="round" stroke-linejoin="round"/>
<path d="M446.793 561.73C530.238 561.73 518.583 561.73 546 561.73C545.528 562.004 541.277 563.048 539.523 563.26C537.33 563.524 479.801 563.38 467.523 563.38C425.493 563.38 235.627 562.393 223.201 562.393M446.793 561.73C446.793 561.73 245.533 563.38 213.434 563.38C181.335 563.38 188.927 563.425 121.163 563.38C70.5004 563.347 9.91998 563.38 5.84333 563.38C1.76668 563.38 3.27091 561.401 3.27091 561.401C31.7665 562.393 81.3593 562.393 146.492 562.393C168.936 562.393 195.189 562.393 223.201 562.393M446.793 561.73C385.791 561.73 299.336 562.393 223.201 562.393" stroke="black" stroke-width="6" stroke-miterlimit="10" stroke-linecap="round" stroke-linejoin="round"/>
<path d="M531.447 307.672C531.447 374.066 532.8 415.84 532.8 459.251C532.8 502.663 532.109 576.207 532.109 576.207C532.109 576.207 530.517 579.306 530.517 573.25C530.517 567.194 531.558 524.14 531.447 462.266C531.335 400.392 531.34 335.557 531.447 307.672ZM531.447 307.672C531.446 276.374 530.724 212.441 530.767 176.864C530.814 136.971 530.766 79.5211 530.767 41" stroke="black" stroke-width="6" stroke-miterlimit="10" stroke-linecap="round" stroke-linejoin="round"/>
<path d="M13.9997 50.8621C43.2193 50.8621 68.7128 50.8621 83.744 50.8621M83.744 50.8621C98.7752 50.8621 165.513 51.1537 193.772 51.1537M83.744 50.8621C83.744 50.8621 116.34 49.9546 135.451 49.9546C154.562 49.9546 193.772 51.1537 193.772 51.1537M551 51.1537C521.093 51.1537 534.921 50.8621 505.216 50.8621C488.284 50.8621 467.571 51.348 437.877 51.1537M273.314 49.9546C293.864 49.9827 401.276 50.9141 437.877 51.1537M273.314 49.9546C252.061 49.9256 222.03 51.1537 193.772 51.1537M273.314 49.9546C273.314 49.9546 324.843 49.9546 353.703 49.9546M437.877 51.1537C437.877 51.1537 382.563 49.9546 353.703 49.9546M193.772 51.1537C211.092 51.1537 251.25 51.1537 273.314 51.1537C295.378 51.1537 336.1 50.3543 353.703 49.9546" stroke="black" stroke-width="6" stroke-miterlimit="10" stroke-linecap="round" stroke-linejoin="round"/>
<rect x="68" y="106" width="416" height="400" stroke="black" stroke-width="4"/>
<g filter="url(#filter0_d_330_23)">
<rect x="1" y="137" width="90.0111" height="90.0111" rx="45.0056" fill="#FFDC58" stroke="black" stroke-width="2"/>
<path fillRule="evenodd" clip-rule="evenodd" d="M44.7976 209.565C44.7971 209.556 44.7897 209.549 44.7807 209.549C43.6101 209.52 42.4121 209.405 41.2331 209.075C40.8023 208.954 40.3621 208.835 39.9481 208.635C39.2188 208.288 38.5412 207.792 38.0077 207.176C37.7386 206.863 37.5079 206.549 37.3015 206.178C37.0852 205.807 36.9589 205.376 36.9086 204.944C36.8576 204.559 36.8986 204.163 36.9931 203.79C37.0957 203.415 37.2785 203.074 37.4917 202.762C38.0643 201.976 39.0348 201.505 39.9406 201.591C40.2247 201.609 40.1843 201.756 40.0022 201.979C39.8076 202.176 39.5452 202.577 39.2536 202.798C38.9732 202.988 38.811 203.274 38.6301 203.491C38.4628 203.728 38.3553 203.988 38.3074 204.252C38.2359 204.512 38.2229 204.791 38.2782 205.082C38.3354 205.371 38.479 205.659 38.6742 205.999C38.9117 206.376 39.2387 206.704 39.6161 206.972C40.0003 207.233 40.4293 207.436 40.8713 207.613C41.8486 208.001 42.9478 208.17 44.0581 208.24C44.7438 208.279 45.4401 208.289 46.1252 208.25C47.1653 208.189 48.2141 208.06 49.1995 207.754C49.9717 207.539 50.6866 207.209 51.3686 206.834C51.5203 206.752 51.6615 206.661 51.8094 206.574C52.359 206.248 52.5654 206.189 52.8153 206.278C52.8713 206.298 52.9353 206.31 52.9801 206.335C53.1212 206.405 53.0168 206.721 52.6369 207.082C52.0705 207.608 51.409 208.074 50.6891 208.448C50.3285 208.632 49.958 208.811 49.5726 208.948C49.1834 209.07 48.7867 209.174 48.387 209.255C47.2068 209.503 45.9996 209.583 44.8149 209.582C44.8057 209.582 44.7981 209.574 44.7976 209.565Z" fill="#231F20"/>
<path fillRule="evenodd" clip-rule="evenodd" d="M48.0058 210.007C48.0042 210.003 47.9994 210 47.9948 210.001C47.3602 210.169 46.7145 210.289 46.0671 210.388C45.8277 210.421 45.5933 210.452 45.3533 210.484C44.5078 210.545 43.6574 210.526 42.8193 210.409C42.4463 210.36 42.0745 210.294 41.7077 210.216C41.2427 210.099 40.754 209.979 40.3574 209.673C40.2312 209.584 40.3313 209.469 40.5103 209.398C40.6937 209.324 40.93 209.306 41.1662 209.381C41.9918 209.691 42.897 209.83 43.8252 209.912C44.3835 209.954 44.9673 209.892 45.5349 209.81C46.1628 209.739 46.7857 209.609 47.4031 209.455C47.7836 209.365 48.1572 209.24 48.5315 209.124L49.3745 208.825C49.6499 208.713 49.9234 208.594 50.1933 208.472C50.6061 208.268 50.9896 208.027 51.3894 207.812L51.6474 207.661C51.9769 207.483 52.1075 207.469 52.2355 207.523C52.2647 207.536 52.2989 207.545 52.3213 207.561C52.3953 207.613 52.3027 207.756 52.0882 207.943C51.4559 208.507 50.6931 208.97 49.8793 209.333C49.2844 209.618 48.6556 209.837 48.0169 210.013C48.0122 210.014 48.0074 210.012 48.0058 210.007Z" fill="#231F20"/>
<path fillRule="evenodd" clip-rule="evenodd" d="M49.2374 214.002C49.2422 214.006 49.249 214.006 49.2537 214.002C49.4523 213.83 49.6226 213.588 49.7791 213.335C49.84 213.244 49.8624 213.127 49.9196 213.03C50.1148 212.678 50.287 212.297 50.458 211.903C50.54 211.731 50.5997 211.548 50.6668 211.365C50.7576 211.133 50.8161 210.869 51.0772 210.68C51.1518 210.621 51.2376 210.738 51.3159 210.88C51.3905 211.03 51.4813 211.154 51.4576 211.275C51.3445 211.664 51.2954 212.169 51.015 212.606C50.8633 212.872 50.8011 213.188 50.6656 213.479C50.522 213.8 50.3293 214.109 50.1135 214.402C49.9581 214.572 49.822 214.751 49.633 214.892C49.4977 215.002 49.3525 215.099 49.1991 215.182L49.1959 215.183C49.0467 215.279 48.8788 215.328 48.716 215.389C48.591 215.447 48.466 215.486 48.3361 215.522C48.2087 215.556 48.0744 215.617 47.9426 215.627C47.8848 215.635 47.8276 215.636 47.7685 215.631C47.5503 215.604 47.4862 215.538 47.4701 215.318C47.4657 215.272 47.4589 215.226 47.4589 215.184C47.4595 215.051 47.5584 214.884 47.6852 214.823C48.0738 214.631 48.3628 214.567 48.6457 214.429C48.8318 214.307 49.045 214.205 49.2195 214.004C49.224 213.999 49.2319 213.998 49.2374 214.002Z" fill="#231F20"/>
<path fillRule="evenodd" clip-rule="evenodd" d="M39.4616 203.046C39.4565 203.039 39.4468 203.036 39.4384 203.04C39.2855 203.103 39.1066 203.173 38.9517 203.293C38.8945 203.338 38.8603 203.403 38.8031 203.45C38.5942 203.613 38.3884 203.804 38.2367 204.031C38.1808 204.13 38.146 204.248 38.1528 204.35C38.1491 204.496 38.2013 204.575 38.0931 204.687C38.0546 204.725 37.8146 204.838 37.5466 204.866C37.288 204.91 36.9498 204.786 36.9231 204.615C36.8528 204.307 36.9131 204.039 37.007 203.815C37.0978 203.586 37.2383 203.397 37.4074 203.238C37.6138 203.056 37.7052 202.805 37.8855 202.612C38.0857 202.404 38.307 202.219 38.5594 202.066C38.7074 201.967 38.8827 201.9 39.048 201.826C39.3079 201.718 39.5922 201.67 39.873 201.649C39.8763 201.649 39.8796 201.649 39.883 201.648C39.9968 201.647 40.113 201.619 40.2318 201.614C40.348 201.62 40.4711 201.626 40.593 201.646C40.6489 201.65 40.6899 201.68 40.7347 201.708C40.8901 201.831 40.8939 201.939 40.7826 202.161C40.7571 202.212 40.7335 202.262 40.7049 202.309C40.6091 202.465 40.4655 202.575 40.3542 202.635C40.0086 202.83 39.9905 202.887 39.8444 202.922C39.7533 202.942 39.6223 202.982 39.4866 203.052C39.4779 203.057 39.4672 203.054 39.4616 203.046Z" fill="#231F20"/>
<path fillRule="evenodd" clip-rule="evenodd" d="M28.7841 192.592C28.7873 192.588 28.7873 192.583 28.7841 192.579C27.2967 190.854 25.9565 188.985 24.8848 186.961C24.6778 186.597 24.4981 186.219 24.3215 185.839C24.1344 185.465 23.9659 185.082 23.8223 184.688C22.7257 181.946 22.2774 178.953 22.4962 176.027C22.5317 175.376 22.6399 174.73 22.7182 174.084C22.8575 173.449 22.9352 172.8 23.1186 172.181C23.4847 170.571 24.1102 168.971 25.0794 167.619C25.384 167.2 25.4114 167.308 25.2634 167.724C25.1092 168.14 24.8506 168.893 24.5074 169.747C24.3557 170.127 24.2215 170.514 24.1015 170.904C23.9802 171.293 23.8982 171.702 23.7825 172.096C23.6694 172.493 23.5674 172.891 23.4997 173.298C23.4288 173.703 23.3219 174.103 23.279 174.513C23.0191 176.14 22.9998 177.802 23.1584 179.452C23.3467 181.432 23.9635 183.44 24.8239 185.285C25.7595 187.322 26.9582 189.246 28.3676 191.011C29.2236 192.106 30.1493 193.15 31.1229 194.146C32.5907 195.663 34.1655 197.093 35.7707 198.447C37.0197 199.501 38.2905 200.477 39.5469 201.501C39.8223 201.729 40.0996 201.941 40.3682 202.183C41.3734 203.066 41.6451 203.409 41.7446 203.716C41.7682 203.785 41.808 203.867 41.8136 203.914C41.8298 204.076 41.3809 203.765 40.6305 203.154C38.3893 201.36 35.9628 199.501 33.6563 197.462C31.9475 195.948 30.2902 194.347 28.7841 192.605C28.7809 192.601 28.7809 192.596 28.7841 192.592Z" fill="#231F20"/>
<path fillRule="evenodd" clip-rule="evenodd" d="M25.808 166.439C25.8182 166.444 25.8302 166.441 25.8368 166.432C26.8129 165.131 27.9615 163.985 29.2143 162.98C30.5012 162.012 31.8789 161.177 33.3343 160.509C36.255 159.211 39.4431 158.503 42.6535 158.604C43.8248 158.64 44.9936 158.775 46.1238 159C46.6933 159.112 47.2609 159.248 47.8235 159.414C48.3862 159.577 48.9364 159.815 49.4897 160.018C51.407 160.856 53.1129 162.147 54.4732 163.705C55.8397 165.263 56.8698 167.077 57.5761 168.987C59.011 172.809 59.2864 176.958 58.7517 180.922C58.5379 182.688 58.1624 184.431 57.6986 186.14C57.2503 187.856 56.6616 189.523 56.0362 191.16C55.2298 193.264 54.2625 195.307 53.1838 197.284C52.1139 199.267 50.8978 201.166 49.578 202.978C48.7505 204.107 48.7095 203.844 49.177 202.743C49.4163 202.196 49.7545 201.423 50.1866 200.511C50.6031 199.59 51.1192 198.533 51.7085 197.407C52.7592 195.412 53.6588 193.349 54.5198 191.28C55.3629 189.202 56.0828 187.077 56.6261 184.911C57.7228 180.59 58.0616 176.05 57.0172 171.717C56.6989 170.429 56.2519 169.161 55.6625 167.955C55.0707 166.749 54.3041 165.629 53.4095 164.631C52.5118 163.637 51.4754 162.759 50.3047 162.11C49.1359 161.46 47.8944 160.962 46.5714 160.655C40.7834 159.207 34.3315 160.713 29.6955 164.519C28.2786 165.692 27.0471 167.094 26.1431 168.687C25.9404 169.097 25.7228 169.501 25.5295 169.915L25.0539 171.2C24.8164 172.096 24.569 172.992 24.4484 173.912L24.362 174.431L24.3184 174.956L24.2351 176.006L24.242 177.06L24.2476 177.586L24.2967 178.112C24.3806 179.518 24.7051 180.9 25.1043 182.251C25.5121 183.604 26.1008 184.896 26.7412 186.157C27.4114 187.403 28.1711 188.6 28.9973 189.747C31.5948 193.308 34.7928 196.267 38.0716 199.163C38.7965 199.802 39.5189 200.411 40.2407 201.075C42.9221 203.509 43.6507 204.578 43.7906 205.443C43.8211 205.641 43.854 205.889 43.8378 206.002C43.8217 206.099 43.7608 206.09 43.6563 206.002C43.5469 205.914 43.4331 205.743 43.2006 205.523C42.7735 205.077 42.0635 204.382 41.0806 203.519C38.135 200.991 34.9656 198.42 32.0666 195.445C29.1733 192.48 26.4652 189.109 24.6852 185.148C24.0219 183.683 23.5251 182.133 23.1807 180.546C22.8295 178.956 22.7399 177.312 22.7903 175.683C22.8506 174.049 23.1751 172.444 23.5985 170.878C24.0896 169.292 24.836 167.796 25.7787 166.447C25.7853 166.438 25.7975 166.435 25.808 166.439Z" fill="#231F20"/>
<path fillRule="evenodd" clip-rule="evenodd" d="M41.9002 208.534C41.8993 208.543 41.9057 208.551 41.9148 208.553C43.4948 208.84 45.1744 208.792 46.8213 208.523C47.42 208.418 48.0267 208.252 48.6074 208.124C49.5841 207.871 50.5794 207.406 51.4877 206.867C52.3941 206.32 53.2397 205.649 53.829 204.834C54.3258 204.099 54.442 203.218 54.0012 202.496C53.7271 202.038 53.267 201.66 52.7709 201.35C52.2642 201.051 51.724 200.78 51.1495 200.575C50.7927 200.455 50.8461 200.338 51.2135 200.234C51.5679 200.153 52.2972 200.039 53.0401 200.371C53.6885 200.66 54.327 201.053 54.8443 201.685C54.9758 201.836 55.0815 202.01 55.1729 202.194C55.3672 202.586 55.4909 203.012 55.5256 203.448C55.5312 203.664 55.4939 203.878 55.4715 204.093C55.3074 204.933 54.8704 205.6 54.3966 206.153C53.9192 206.713 53.3572 207.135 52.779 207.516C52.0852 207.966 51.3659 208.372 50.613 208.734C50.2362 208.915 49.8495 209.081 49.4485 209.224C49.2502 209.299 49.0351 209.354 48.83 209.418L48.2313 209.549C46.4855 209.937 44.6758 210.141 42.866 209.988C41.7538 209.891 40.6472 209.657 39.5934 209.25C38.7976 208.932 38.0473 208.482 37.387 207.911C36.7361 207.33 36.2039 206.581 35.9409 205.712C35.7507 205.039 35.7221 204.282 35.9515 203.594C36.1878 202.909 36.6298 202.319 37.157 201.866C37.3895 201.666 37.6251 201.482 37.8893 201.327C38.3768 201.039 38.7429 200.954 39.0003 200.922C39.2627 200.901 39.4318 200.961 39.5835 201.086C39.6525 201.141 39.7345 201.191 39.7793 201.249C39.9297 201.451 39.5797 201.742 39.0034 202.106C38.1449 202.634 37.4231 203.366 37.226 204.147C37.1066 204.536 37.1284 204.92 37.2198 205.326C37.3304 205.732 37.5685 206.128 37.8595 206.497C38.782 207.587 40.3102 208.243 41.8854 208.514C41.8946 208.516 41.9011 208.524 41.9002 208.534Z" fill="#231F20"/>
<path fillRule="evenodd" clip-rule="evenodd" d="M40.2434 205.594C40.2406 205.602 40.2445 205.611 40.2523 205.614C41.1278 205.979 42.1007 206.217 43.0958 206.334C43.4613 206.379 43.8312 206.373 44.1999 206.387C45.5017 206.444 46.8328 206.348 48.1079 206.023C48.6718 205.877 49.2263 205.678 49.7342 205.417C50.3876 205.075 50.9565 204.633 51.4613 204.143C51.6217 203.99 51.7411 204.077 51.7635 204.347C51.7995 204.621 51.6864 205.098 51.3146 205.436C49.9953 206.585 48.3628 207.12 46.7377 207.279C45.7641 207.372 44.76 207.521 43.7585 207.492C42.6612 207.459 41.5577 207.316 40.4952 206.974C39.843 206.764 39.2052 206.483 38.6164 206.103C38.1732 205.813 37.7591 205.461 37.4184 205.037C37.2593 204.816 37.0995 204.596 36.9808 204.349C36.8446 204.128 36.7451 203.775 36.7513 203.476C36.7582 202.989 36.9441 202.557 37.1822 202.196C37.424 201.834 37.7274 201.528 38.0774 201.28C38.2291 201.167 38.387 201.066 38.5611 200.981C39.2251 200.686 39.5285 200.8 39.6777 201.063C39.7131 201.124 39.7548 201.182 39.7722 201.242C39.8188 201.444 39.6037 201.629 39.2841 201.804C38.7967 202.061 38.3379 202.481 38.0886 202.917C37.9637 203.132 37.9089 203.342 37.9214 203.481C37.9232 203.553 37.945 203.608 37.973 203.666C38.0065 203.739 38.0998 203.888 38.1564 203.998C38.5911 204.677 39.3524 205.219 40.2342 205.574C40.2421 205.577 40.2462 205.586 40.2434 205.594Z" fill="#231F20"/>
<path fillRule="evenodd" clip-rule="evenodd" d="M43.8178 211.282C43.8166 211.291 43.8226 211.3 43.8318 211.302C44.6474 211.492 45.5337 211.52 46.4175 211.44C46.7438 211.418 47.0609 211.327 47.3854 211.274C48.5337 211.087 49.6683 210.729 50.7538 210.253C51.23 210.032 51.6857 209.76 52.0985 209.451C52.6438 209.062 53.0777 208.579 53.5259 208.13C53.677 207.994 53.8119 208.078 53.876 208.336C53.9058 208.463 53.9313 208.65 53.8934 208.843C53.8486 209.023 53.7622 209.221 53.6242 209.399C52.589 210.553 51.3009 211.38 49.8741 211.816C49.0193 212.061 48.1682 212.417 47.2667 212.573C46.2826 212.751 45.2692 212.814 44.2577 212.713C43.6372 212.647 43.0124 212.5 42.4274 212.291C41.5402 211.966 40.7022 211.466 40.0071 210.814C39.4644 210.316 38.9652 209.755 38.6065 209.097C38.5331 208.95 38.461 208.806 38.3994 208.652C38.2198 208.066 38.3223 207.841 38.5685 207.66C38.6251 207.618 38.6761 207.57 38.7302 207.542C38.9036 207.451 39.1672 207.626 39.396 207.945C39.7324 208.42 40.0252 208.868 40.359 209.279C40.6941 209.689 41.0889 210.042 41.5365 210.341C42.1897 210.779 42.9992 211.101 43.8031 211.262C43.8126 211.264 43.819 211.272 43.8178 211.282Z" fill="#231F20"/>
<path fillRule="evenodd" clip-rule="evenodd" d="M40.3782 173.143C40.3866 173.141 40.3921 173.133 40.3914 173.124C40.3701 172.818 40.3685 172.503 40.3857 172.181L40.4223 171.677L40.4826 171.313C40.5175 171.182 40.5647 171.055 40.6051 170.926C40.7779 170.406 41.1821 170.068 41.6608 169.969C42.1444 169.873 42.6486 170.039 43.0366 170.392C43.1304 170.484 43.2287 170.578 43.3064 170.682C43.3928 170.786 43.4749 170.887 43.5103 170.955C43.6092 171.109 43.6875 171.261 43.7621 171.413C43.9101 171.715 44.0238 172.013 44.1258 172.31C44.3179 172.91 44.4789 173.531 44.5516 174.148C44.8581 176.616 44.487 179.104 43.4071 181.339C43.2088 181.746 42.9769 182.14 42.7208 182.522C42.5908 182.714 42.4167 182.908 42.2638 183.098C42.0816 183.273 41.8964 183.451 41.6881 183.602C40.837 184.218 39.6968 184.381 38.7624 184.159C37.9225 183.987 37.1777 183.631 36.5019 183.206C35.8249 182.775 35.2162 182.275 34.6654 181.693C34.1059 181.093 33.6713 180.434 33.3058 179.733C32.9446 179.033 32.6474 178.292 32.4982 177.491C32.3515 176.7 32.3247 175.812 32.7121 174.989C32.8955 174.59 33.1479 174.231 33.5147 173.929C33.874 173.627 34.3763 173.451 34.8532 173.466C35.8205 173.498 36.5492 174.081 37.0987 174.613C37.6664 175.165 38.1357 175.792 38.5461 176.443C39.9965 178.764 40.8072 181.368 41.5768 183.868C42.0798 185.482 42.5212 187.14 42.8022 188.834C42.934 189.682 43.0353 190.537 43.0614 191.397C43.0876 192.256 43.0434 193.115 42.9626 193.965C42.8333 195.026 42.6766 194.856 42.5119 193.964C42.4211 193.488 42.3017 192.87 42.1643 192.153C42.0002 191.412 41.8355 190.559 41.6782 189.63C41.3972 187.983 40.9278 186.37 40.4248 184.746C39.9349 183.104 39.4457 181.472 38.8513 179.918C38.2557 178.368 37.5314 176.848 36.4876 175.669C36.2302 175.376 35.9393 175.098 35.6664 174.91C35.3829 174.723 35.0801 174.607 34.8233 174.608C34.566 174.601 34.3415 174.693 34.1239 174.903C33.9063 175.114 33.7217 175.431 33.6284 175.737C33.3866 176.514 33.5731 177.51 33.9399 178.408C34.3048 179.313 34.8507 180.197 35.5153 180.892C36.2103 181.595 37.0465 182.201 37.9324 182.603C38.814 182.984 39.7876 183.166 40.5492 182.81C40.9701 182.627 41.3319 182.305 41.6309 181.901C41.9349 181.461 42.2035 180.982 42.4261 180.48C42.8588 179.469 43.1472 178.379 43.2697 177.271C43.4034 176.163 43.3754 175.036 43.1796 173.952C43.0689 173.416 42.9228 172.887 42.7158 172.381C42.6132 172.131 42.4969 171.893 42.3658 171.687C42.257 171.517 42.2016 171.451 42.0742 171.379C41.9237 171.293 41.7347 171.383 41.6751 171.54C41.6421 171.613 41.6141 171.696 41.6023 171.771C41.575 171.896 41.5445 172.077 41.5389 172.235C41.5066 172.898 41.5818 173.595 41.7111 174.274C41.8423 174.953 42.03 175.627 42.2924 176.259C42.5485 176.874 42.8973 177.52 43.3431 177.828C43.7117 178.054 44.1668 178.164 44.6039 178.082C45.0465 178.007 45.4811 177.77 45.8622 177.457C46.62 176.825 47.2274 175.921 47.5184 174.982C47.662 174.538 47.6663 174.027 47.6023 173.543C47.5327 173.066 47.3586 172.591 47.0732 172.348C46.7779 172.103 46.4833 172.107 46.1718 172.401C45.8585 172.701 45.6029 173.155 45.4102 173.618C45.2511 173.981 45.1584 174.35 45.067 174.758C44.9645 175.153 44.8961 175.556 44.8302 175.958C44.7114 176.764 44.6399 177.575 44.6225 178.387C44.5858 180.011 44.7089 181.633 44.9906 183.233C45.1149 183.938 45.2697 184.621 45.4456 185.318C45.7664 186.614 46.0431 187.446 46.1923 188.049C46.349 188.649 46.3738 189.023 46.3285 189.359C46.3073 189.512 46.3048 189.705 46.2663 189.807C46.1668 190.148 45.3972 189.248 44.7071 187.307C43.708 184.435 43.2082 181.291 43.3449 178.088C43.3878 177.289 43.4631 176.485 43.5973 175.684C43.6726 175.286 43.7173 174.881 43.8137 174.482L43.9455 173.875C44.0039 173.645 44.0723 173.439 44.1482 173.228C44.3042 172.811 44.4889 172.401 44.7599 171.986C45.031 171.591 45.3928 171.104 46.1805 170.842C46.556 170.757 46.9738 170.749 47.3275 170.921C47.7012 171.043 47.9672 171.272 48.1842 171.513C48.6144 172.006 48.7755 172.524 48.8867 173.007C49.0241 173.735 49.0415 174.402 48.8569 175.172C48.6629 175.873 48.3552 176.47 47.9822 177.027C47.6054 177.579 47.1572 178.085 46.602 178.514C46.0499 178.935 45.3611 179.296 44.5467 179.36C44.3484 179.39 44.1382 179.354 43.9362 179.345C43.7341 179.319 43.5383 179.255 43.3418 179.204C43.1578 179.13 42.9806 179.042 42.8034 178.955C42.6051 178.838 42.4335 178.697 42.2899 178.557C41.7428 177.985 41.4618 177.39 41.2113 176.798C40.7431 175.613 40.4631 174.42 40.3651 173.163C40.3644 173.154 40.3699 173.146 40.3782 173.143Z" fill="#231F20"/>
<path fillRule="evenodd" clip-rule="evenodd" d="M65.0222 174.641C65.0079 174.75 64.8643 174.702 64.6411 174.57C64.5696 174.528 64.4011 174.355 64.3955 174.312C64.3844 174.229 64.375 174.146 64.38 174.075C64.38 174.032 64.6623 173.581 64.7623 173.423C64.8556 173.268 64.9781 173.143 65.1111 173.031C65.3753 172.796 65.6582 172.578 65.9572 172.379C66.0238 172.335 66.0984 172.304 66.1779 172.284C66.4552 172.219 66.694 172.096 66.9302 171.953C66.97 171.93 67.016 171.918 67.0384 171.859C67.0676 171.75 67.7782 171.469 67.8864 171.482C68.1456 171.492 68.3931 171.479 68.6448 171.511C68.6803 171.515 68.7132 171.49 68.7536 171.54C68.8463 171.654 68.9134 171.623 68.9874 171.623C69.0887 171.621 69.1919 171.632 69.2951 171.666C69.3461 171.682 69.4002 171.749 69.4512 171.801C69.4972 171.847 69.4854 172.034 69.4729 172.055C69.4356 172.117 69.4754 172.201 69.4841 172.277C69.4906 172.33 69.4761 172.38 69.4382 172.418C69.3987 172.457 69.3409 172.51 69.2799 172.565C69.1033 172.721 68.8677 172.849 68.648 172.935C68.4751 173.003 68.3004 173.085 68.2675 173.111C68.1949 173.16 68.0975 173.127 68.0211 173.171C67.9864 173.19 67.9468 173.213 67.9063 173.237C67.7131 173.351 67.5177 173.542 67.2982 173.496C67.289 173.494 67.2795 173.492 67.2696 173.489C67.2392 173.481 67.2212 173.497 67.2013 173.51C67.0303 173.617 66.8345 173.681 66.6448 173.765C66.5497 173.811 66.4683 173.878 66.3806 173.936C66.3645 173.946 66.3402 173.944 66.3203 173.949C66.2955 173.956 66.2675 173.957 66.2482 173.972C66.0455 174.118 65.8062 174.224 65.6358 174.416C65.5948 174.456 65.3026 174.549 65.2609 174.605C65.2367 174.635 65.0278 174.596 65.0222 174.641Z" fill="#231F20"/>
<path fillRule="evenodd" clip-rule="evenodd" d="M59.0316 160.788C59.0167 160.9 58.8644 160.849 58.6319 160.715C58.5579 160.672 58.3826 160.494 58.3757 160.45C58.3627 160.363 58.3515 160.276 58.354 160.202C58.354 160.157 58.6244 159.675 58.7152 159.5C58.801 159.331 58.9179 159.195 59.0447 159.07C59.3039 158.819 59.5806 158.588 59.8554 158.367C59.9169 158.318 59.9878 158.281 60.0661 158.258C60.3347 158.179 60.5498 158.03 60.7438 157.855C60.7761 157.826 60.8171 157.808 60.8215 157.741C60.8327 157.632 61.3854 157.222 61.4749 157.202C61.7074 157.153 61.9163 157.071 62.1364 157.001C62.1687 156.993 62.1843 156.958 62.2452 156.992C62.3869 157.07 62.4273 157.011 62.4895 156.981C62.5759 156.939 62.6648 156.901 62.7699 156.881C62.8221 156.871 62.9085 156.906 62.985 156.927C63.0546 156.947 63.1672 157.121 63.1696 157.149C63.1765 157.226 63.266 157.281 63.3232 157.346C63.3425 157.368 63.368 157.396 63.381 157.415C63.6747 157.809 62.9443 158.363 62.5867 158.699C62.5238 158.758 62.477 158.804 62.4622 158.822C62.4298 158.861 62.3689 158.861 62.3167 158.871C62.2918 158.879 61.8094 159.335 61.7876 159.344C61.6658 159.404 61.5843 159.52 61.4053 159.492C61.3698 159.486 61.3512 159.506 61.3307 159.523C61.1541 159.664 60.9427 159.751 60.7425 159.854C60.6418 159.907 60.5604 159.986 60.4684 160.05C60.4516 160.063 60.4249 160.06 60.4043 160.066C60.3776 160.074 60.3471 160.076 60.3273 160.092C60.1271 160.267 59.8628 160.362 59.6863 160.564C59.6428 160.605 59.3288 160.695 59.2853 160.754C59.2592 160.784 59.0379 160.742 59.0316 160.788Z" fill="#231F20"/>
<path fillRule="evenodd" clip-rule="evenodd" d="M50.9806 213.917C50.9742 213.914 50.9662 213.916 50.962 213.922C50.6346 214.387 50.2462 214.857 49.7303 215.223C49.5345 215.348 49.3511 215.498 49.1248 215.576C48.7362 215.737 48.2793 215.778 47.8833 215.715C47.4817 215.654 47.118 215.517 46.7922 215.341C46.5025 215.185 46.2227 215.026 45.9566 214.853C45.7881 214.74 45.6153 214.631 45.4593 214.503C45.3094 214.366 45.1832 214.203 45.0782 214.025C45.0141 213.912 45.1323 213.82 45.3225 213.766C45.75 213.652 46.1544 213.901 46.5306 214.133C46.9483 214.392 47.3666 214.609 47.7832 214.77C48.1649 214.907 48.5236 214.802 48.873 214.608C49.2541 214.402 49.5929 214.06 49.8851 213.654C50.0685 213.407 50.232 213.132 50.3887 212.853C50.6206 212.424 50.855 211.981 51.0577 211.524C51.2118 211.167 51.3169 210.786 51.4854 210.422C51.5233 210.342 51.5519 210.258 51.596 210.18C51.7776 209.9 51.9237 209.867 52.1854 209.974C52.242 209.997 52.2973 210.012 52.3421 210.035C52.4776 210.099 52.6063 210.35 52.5541 210.567C52.4074 211.218 52.1357 211.826 51.8105 212.469C51.5749 212.943 51.3092 213.427 50.9996 213.913C50.9956 213.919 50.9872 213.921 50.9806 213.917Z" fill="#231F20"/>
<path fillRule="evenodd" clip-rule="evenodd" d="M42.5797 153.74C42.6487 153.838 42.5138 153.927 42.2707 154.008C42.193 154.034 41.9561 154.038 41.9194 154.011C41.8498 153.959 41.7795 153.907 41.7279 153.853C41.7 153.819 41.5097 153.294 41.4183 153.122C41.3357 152.954 41.2921 152.784 41.2561 152.614C41.184 152.268 41.0777 151.929 41.0173 151.586C41.0018 151.51 41.0037 151.432 41.0173 151.352C41.0677 151.075 41.0205 150.811 40.9316 150.555C40.9166 150.512 40.9154 150.465 40.8532 150.433C40.8291 150.422 40.8016 150.377 40.7739 150.313C40.5709 149.844 40.6699 149.316 40.7345 148.809C40.7388 148.773 40.7121 148.742 40.7656 148.698C40.8899 148.592 40.8458 148.527 40.8545 148.448C40.8564 148.421 40.8581 148.393 40.8603 148.365C40.8733 148.198 40.9608 148.055 41.0609 147.921C41.1044 147.863 41.2306 147.856 41.2542 147.867C41.312 147.901 41.3711 147.846 41.4246 147.828C41.4432 147.822 41.4675 147.814 41.4849 147.812C41.5137 147.807 41.6641 147.903 41.8162 148.016C42.0684 148.202 42.2305 148.487 42.3565 148.774C42.4535 148.995 42.5592 149.226 42.5865 149.272C42.6444 149.366 42.6067 149.489 42.642 149.594C42.7133 149.806 42.8313 150.156 42.8308 150.178C42.8377 150.329 42.9129 150.47 42.8053 150.64C42.7848 150.673 42.796 150.702 42.8029 150.732C42.8576 150.984 42.8389 151.249 42.8346 151.509C42.8321 151.642 42.8619 151.771 42.8625 151.904C42.8632 151.927 42.8451 151.953 42.8377 151.978C42.8283 152.009 42.8128 152.04 42.8147 152.07C42.8364 152.38 42.7767 152.696 42.8234 153.002C42.8333 153.073 42.7015 153.419 42.7183 153.499C42.7264 153.545 42.5504 153.702 42.5797 153.74Z" fill="#231F20"/>
<path fillRule="evenodd" clip-rule="evenodd" d="M22.4504 154.831C22.318 154.814 22.3857 154.637 22.5797 154.377C22.6413 154.295 22.8781 154.098 22.9291 154.089C23.028 154.071 23.1243 154.055 23.2027 154.053C23.2487 154.056 23.7006 154.296 23.8728 154.347C24.0332 154.406 24.1638 154.494 24.2894 154.591L25.0883 155.148C25.1479 155.19 25.1977 155.245 25.2424 155.311C25.3916 155.541 25.6055 155.687 25.8411 155.8C25.8803 155.819 25.9132 155.851 25.9767 155.828C26.0768 155.792 26.6885 156.155 26.7507 156.239C26.8986 156.444 27.0696 156.617 27.2325 156.805C27.2561 156.832 27.2978 156.833 27.2928 156.903C27.281 157.064 27.3556 157.08 27.4134 157.126C27.493 157.19 27.5694 157.263 27.6316 157.356C27.6627 157.402 27.6627 157.499 27.6708 157.581C27.6789 157.655 27.5458 157.83 27.5203 157.842C27.4457 157.877 27.4246 157.984 27.3817 158.065C27.3674 158.091 27.3481 158.126 27.3338 158.147C27.3009 158.19 26.6158 158.223 26.5623 158.19C26.5561 158.187 26.3565 158.106 26.1439 158.019C25.9313 157.933 25.7075 157.845 25.6577 157.832C25.6061 157.819 25.5794 157.764 25.5458 157.72C25.5315 157.703 24.87 157.448 24.847 157.428C24.7314 157.339 24.576 157.305 24.5231 157.119C24.5132 157.082 24.484 157.072 24.4585 157.059C24.2334 156.938 24.05 156.754 23.8616 156.579C23.764 156.49 23.6484 156.425 23.5433 156.345C23.5247 156.331 23.5179 156.301 23.5042 156.28C23.4868 156.254 23.4756 156.218 23.452 156.201C23.2033 156.01 23.0149 155.75 22.7532 155.568C22.6891 155.527 22.5561 155.17 22.4871 155.123C22.4454 155.097 22.502 154.838 22.4504 154.831Z" fill="#231F20"/>
</g>
<path d="M507 104.38C507 104.38 509.499 95.1927 509.554 84.0386C509.642 66.0366 503.643 47.1129 504.257 29.121C504.661 17.2572 507.264 1.00002 507.264 1.00002" stroke="black" stroke-width="7"/>
<g filter="url(#filter1_d_330_23)">
<path d="M452.568 455.738V478.329L440.782 472.436C434.299 469.293 428.21 466.542 427.031 466.542C422.513 466.542 425.656 472.632 434.103 480.097C440.192 485.4 442.353 488.347 440.585 488.936C439.014 489.526 427.424 492.669 414.459 495.812C390.298 501.705 385.387 504.258 389.119 507.991C390.494 509.366 399.923 508.776 420.942 505.633C437.442 503.276 451.389 501.901 451.979 502.49C452.568 503.276 449.228 510.151 444.71 518.009C439.996 525.866 436.067 532.938 435.674 533.527C435.281 534.313 436.264 535.885 437.639 537.063C439.996 539.028 441.96 538.045 448.246 532.545C452.568 528.616 456.89 525.473 457.872 525.473C458.854 525.473 460.818 531.367 462.39 538.635C465.729 555.528 468.086 560.832 472.408 560.832C477.712 560.832 478.694 554.742 477.122 532.152C476.337 520.759 476.337 511.723 477.319 511.723C478.301 511.723 486.159 514.866 494.802 518.598C511.892 526.063 517.392 527.045 517.392 522.723C517.392 518.795 514.249 516.044 499.123 505.633C491.855 500.919 485.962 496.401 485.962 495.812C485.962 495.222 495.98 491.883 508.159 488.347C529.964 482.061 539 477.936 539 474.4C539 471.453 526.624 472.043 506.981 475.579C497.552 477.346 489.105 478.329 488.516 477.543C487.926 476.954 489.302 471.846 491.659 466.346C500.498 444.934 494.998 442.97 481.248 462.81C476.14 470.471 471.033 475.971 470.247 474.989C469.461 474.203 467.301 466.346 465.336 457.703C461.408 439.238 458.854 433.148 455.122 433.148C453.157 433.148 452.568 438.256 452.568 455.738Z" fill="#FF6258"/>
<path d="M454.068 478.329V480.756L451.897 479.67L440.127 473.785C440.125 473.784 440.122 473.783 440.12 473.782C436.889 472.215 433.77 470.753 431.318 469.686C430.09 469.15 429.047 468.722 428.249 468.43C427.85 468.283 427.531 468.178 427.292 468.112C427.09 468.055 427.006 468.044 427.003 468.043C426.713 468.045 426.548 468.083 426.468 468.111C426.458 468.294 426.513 468.822 427.036 469.828C428.185 472.037 430.916 475.278 435.092 478.969C438.143 481.626 440.314 483.78 441.5 485.397C442.064 486.166 442.57 487.027 442.665 487.887C442.719 488.366 442.652 488.927 442.312 489.437C441.985 489.927 441.518 490.201 441.088 490.35C440.178 490.685 436.813 491.635 432.18 492.866C427.456 494.121 421.307 495.695 414.815 497.269C402.694 500.225 395.594 502.302 391.986 504.06C391.098 504.492 390.484 504.876 390.078 505.21C389.667 505.547 389.547 505.769 389.515 505.857C389.499 505.9 389.484 505.946 389.538 506.079C389.605 506.247 389.77 506.51 390.125 506.874C390.16 506.89 390.24 506.922 390.388 506.959C390.694 507.037 391.155 507.106 391.81 507.147C393.116 507.23 395.003 507.192 397.557 507.01C402.654 506.646 410.219 505.72 420.72 504.15L420.72 504.15L420.729 504.148C428.995 502.968 436.629 502.032 442.277 501.464C445.098 501.181 447.441 500.988 449.126 500.903C449.963 500.861 450.668 500.844 451.198 500.86C451.458 500.868 451.718 500.885 451.947 500.921C452.06 500.938 452.204 500.967 452.356 501.017C452.47 501.055 452.771 501.161 453.039 501.43L453.115 501.505L453.179 501.59C453.463 501.969 453.524 502.374 453.54 502.601C453.558 502.851 453.534 503.092 453.503 503.293C453.439 503.698 453.308 504.156 453.146 504.628C452.818 505.585 452.287 506.822 451.615 508.24C450.266 511.088 448.281 514.808 446.011 518.757L446.004 518.769L445.997 518.781C443.647 522.698 441.491 526.42 439.873 529.24C439.379 530.101 438.929 530.888 438.536 531.575C437.886 532.714 437.393 533.576 437.12 534.037C437.15 534.123 437.204 534.244 437.293 534.398C437.559 534.86 438.025 535.417 438.607 535.917C439.071 536.302 439.39 536.438 439.644 536.478C439.892 536.518 440.258 536.496 440.868 536.229C442.186 535.652 444.07 534.206 447.248 531.426C449.438 529.435 451.635 527.637 453.425 526.326C454.318 525.671 455.132 525.123 455.806 524.73C456.141 524.535 456.467 524.363 456.767 524.235C457.021 524.128 457.43 523.973 457.872 523.973C458.705 523.973 459.232 524.544 459.421 524.763C459.68 525.065 459.906 525.439 460.101 525.815C460.5 526.581 460.915 527.627 461.33 528.845C462.164 531.298 463.062 534.647 463.856 538.318L463.859 538.331L463.861 538.344C465.533 546.802 466.931 552.192 468.398 555.453C469.128 557.075 469.822 558.045 470.47 558.604C471.071 559.124 471.679 559.332 472.408 559.332C473.412 559.332 474.013 559.063 474.477 558.536C475.014 557.927 475.524 556.793 475.863 554.721C476.542 550.577 476.414 543.583 475.626 532.256L475.626 532.255C475.232 526.538 475.033 521.39 475.058 517.655C475.07 515.796 475.138 514.242 475.275 513.13C475.341 512.588 475.433 512.066 475.578 511.646C475.647 511.444 475.762 511.163 475.963 510.905C476.166 510.645 476.613 510.223 477.319 510.223C477.685 510.223 478.115 510.339 478.41 510.423C478.776 510.528 479.227 510.676 479.744 510.856C480.782 511.219 482.148 511.737 483.739 512.366C486.925 513.626 491.066 515.351 495.396 517.221L495.402 517.224C503.971 520.966 509.462 523.003 512.774 523.605C514.472 523.913 515.267 523.777 515.584 523.615L515.588 523.613C515.694 523.559 515.892 523.459 515.892 522.723C515.892 521.972 515.749 521.314 515.348 520.578C514.926 519.806 514.191 518.896 512.91 517.71C510.332 515.32 505.868 512.097 498.29 506.881C494.637 504.511 491.325 502.187 488.915 500.374C487.712 499.468 486.716 498.677 486.011 498.063C485.663 497.76 485.358 497.476 485.129 497.229C485.018 497.109 484.893 496.964 484.787 496.806C484.733 496.727 484.665 496.616 484.605 496.48C484.552 496.359 484.462 496.12 484.462 495.812C484.462 495.281 484.727 494.925 484.829 494.801C484.954 494.646 485.088 494.537 485.173 494.473C485.35 494.339 485.55 494.226 485.725 494.135C486.09 493.946 486.583 493.732 487.161 493.501C488.33 493.034 489.994 492.44 492.017 491.762C496.069 490.403 501.639 488.678 507.741 486.906L507.744 486.906C518.637 483.765 526.258 481.187 531.137 478.976C533.584 477.867 535.255 476.888 536.292 476.031C537.087 475.373 537.368 474.907 537.459 474.626C537.28 474.534 536.964 474.418 536.455 474.313C535.171 474.047 533.158 473.948 530.416 474.057C524.971 474.274 517.047 475.291 507.252 477.054C502.514 477.942 498.008 478.636 494.597 479.009C492.896 479.196 491.433 479.306 490.337 479.316C489.796 479.321 489.292 479.302 488.874 479.241C488.667 479.21 488.429 479.162 488.199 479.077C488.018 479.011 487.669 478.861 487.384 478.528C487.16 478.276 487.051 478.005 486.994 477.819C486.928 477.603 486.9 477.395 486.888 477.221C486.865 476.875 486.892 476.497 486.939 476.128C487.035 475.379 487.246 474.436 487.537 473.385C488.122 471.274 489.078 468.562 490.276 465.765C492.468 460.453 493.734 456.435 494.218 453.708C494.463 452.33 494.487 451.395 494.394 450.828C494.376 450.713 494.355 450.628 494.337 450.566C494.21 450.6 493.991 450.678 493.657 450.868C492.98 451.254 492.083 451.958 490.97 453.051C488.757 455.227 485.899 458.734 482.488 463.654C479.906 467.525 477.31 470.874 475.236 473.151C474.207 474.28 473.259 475.199 472.474 475.782C472.097 476.062 471.654 476.345 471.19 476.492C470.77 476.625 469.811 476.78 469.125 475.985C468.842 475.675 468.646 475.264 468.523 474.991C468.36 474.628 468.187 474.178 468.009 473.668C467.65 472.643 467.235 471.283 466.79 469.699C465.897 466.524 464.86 462.374 463.874 458.035L463.871 458.025L463.869 458.015C461.904 448.778 460.307 442.765 458.771 439.078C458.002 437.232 457.296 436.091 456.658 435.427C456.159 434.908 455.736 434.712 455.345 434.662C455.323 434.703 455.297 434.756 455.266 434.824C455.031 435.358 454.792 436.353 454.599 438.056C454.217 441.421 454.068 446.986 454.068 455.738V478.329ZM437.086 533.911C437.086 533.911 437.086 533.913 437.086 533.917C437.086 533.913 437.086 533.911 437.086 533.911ZM494.273 450.419C494.273 450.42 494.277 450.428 494.288 450.44C494.279 450.424 494.274 450.418 494.273 450.419ZM455.423 434.54C455.423 434.539 455.419 434.543 455.411 434.553C455.42 434.545 455.423 434.54 455.423 434.54Z" stroke="black" stroke-width="3"/>
</g>
<circle cx="214" cy="83.1484" r="10" fill="black"/>
<circle cx="337" cy="83.1484" r="10" fill="black"/>
<defs>
<filter id="filter0_d_330_23" x="0" y="136" width="94.0111" height="96.0112" filterUnits="userSpaceOnUse" color-interpolation-filters="sRGB">
<feFlood flood-opacity="0" result="BackgroundImageFix"/>
<feColorMatrix in="SourceAlpha" type="matrix" values="0 0 0 0 0 0 0 0 0 0 0 0 0 0 0 0 0 0 127 0" result="hardAlpha"/>
<feOffset dx="2" dy="4"/>
<feComposite in2="hardAlpha" operator="out"/>
<feColorMatrix type="matrix" values="0 0 0 0 0 0 0 0 0 0 0 0 0 0 0 0 0 0 1 0"/>
<feBlend mode="normal" in2="BackgroundImageFix" result="effect1_dropShadow_330_23"/>
<feBlend mode="normal" in="SourceGraphic" in2="effect1_dropShadow_330_23" result="shape"/>
</filter>
<filter id="filter1_d_330_23" x="388" y="433.148" width="151" height="135.448" filterUnits="userSpaceOnUse" color-interpolation-filters="sRGB">
<feFlood flood-opacity="0" result="BackgroundImageFix"/>
<feColorMatrix in="SourceAlpha" type="matrix" values="0 0 0 0 0 0 0 0 0 0 0 0 0 0 0 0 0 0 127 0" result="hardAlpha"/>
<feOffset dy="7.76457"/>
<feComposite in2="hardAlpha" operator="out"/>
<feColorMatrix type="matrix" values="0 0 0 0 0.745098 0 0 0 0 0.74902 0 0 0 0 0.705882 0 0 0 1 0"/>
<feBlend mode="normal" in2="BackgroundImageFix" result="effect1_dropShadow_330_23"/>
<feBlend mode="normal" in="SourceGraphic" in2="effect1_dropShadow_330_23" result="shape"/>
</filter>
</defs>
</svg>
