<svg width="90" height="65" viewBox="0 0 90 65" fill="none" xmlns="http://www.w3.org/2000/svg">
<path d="M39.4555 46.0361C39.4555 56.2775 32.3538 64.0361 21.5467 64.0361C10.7397 64.0361 1.47656 55.3465 1.47656 39.8292C1.47656 20.5878 15.9888 4.13958 34.8239 1.03613V12.5189C24.0169 14.6913 15.9888 22.4499 15.9888 31.4499C17.8415 30.2085 20.3117 29.2775 24.3257 29.2775C32.3538 29.2775 39.4555 35.1741 39.4555 46.0361ZM89.4766 46.0361C89.4766 56.2775 82.066 64.0361 71.259 64.0361C60.7608 64.0361 51.1888 55.3465 51.1888 39.8292C51.1888 20.5878 65.7011 4.13958 84.845 1.03613V12.5189C74.038 14.6913 66.0099 22.4499 66.0099 31.1396C67.8625 29.8982 70.6415 29.2775 74.3467 29.2775C82.3748 29.2775 89.4766 35.1741 89.4766 46.0361Z" fill="#020202" stroke="url(#paint0_linear_300_395)"/>
<defs>
<linearGradient id="paint0_linear_300_395" x1="1.47656" y1="2.05226" x2="96.229" y2="65.6636" gradientUnits="userSpaceOnUse">
<stop stop-color="white"/>
<stop offset="0.294339" stop-color="white" stop-opacity="0"/>
</linearGradient>
</defs>
</svg>
