<svg width="161" height="173" viewBox="0 0 161 173" fill="none" xmlns="http://www.w3.org/2000/svg">
<g filter="url(#filter0_d_237_179)">
<rect width="112.826" height="117.442" transform="translate(96.2607) rotate(55.0113)" fill="#BAE6FF"/>
<g filter="url(#filter1_d_237_179)">
<path d="M122.655 40.068C121.032 40.5628 121.063 40.5413 107.359 52.6977C101.807 57.591 97.1103 61.6114 96.9535 61.5837C96.7968 61.556 96.4219 58.3376 96.167 54.4399C95.6449 47.0196 94.9105 42.6331 94.0376 41.3205C93.0049 39.845 91.7323 39.7281 90.0416 40.9115C88.2587 42.1594 87.1397 43.7669 81.8459 52.6932C77.5052 60.0364 76.3832 61.5087 75.3165 61.2935C73.9364 61.0229 71.5788 58.9633 60.0033 47.9213C53.7052 41.933 47.9236 36.6825 47.1336 36.2736C44.5609 34.8226 43.1806 36.842 44.1732 40.6814C44.4682 41.7572 46.4813 46.9891 48.642 52.3009C54.6475 66.9667 57.6716 76.3914 56.5957 77.1444C56.3498 77.3165 54.2749 77.1658 51.9357 76.8337C43.5288 75.619 38.0112 75.1299 37.0306 75.4957C36.2775 75.7938 36.0346 76.1012 35.97 76.925C35.8962 77.801 36.0683 78.0469 37.2456 79.0091C38.0079 79.5748 42.4986 82.0649 47.2169 84.4874C51.9352 86.9098 56.1094 89.2093 56.5028 89.5752C57.6923 90.6203 57.4587 91.3335 55.5774 92.8334C54.6367 93.5834 49.7675 97.3578 44.7445 101.24C33.0018 110.375 31.3541 112.078 32.5805 113.83C34.0005 115.859 38.2425 115.179 55.1153 110.102C62.3114 107.951 68.5176 106.218 68.8834 106.282C69.4367 106.353 69.4674 106.79 69.0585 108.496C67.9824 112.913 66.0052 124.418 66.1343 125.519C66.463 128.082 68.0553 128.525 70.1149 126.625C70.7358 126.008 73.9575 122.104 77.3175 117.874C80.6467 113.667 83.4411 110.199 83.5456 110.218C83.6501 110.236 84.5014 112.434 85.4142 115.047C87.6486 121.315 91.8346 131.025 93.771 134.25C95.1572 136.623 95.3815 136.878 96.3314 136.992C98.523 137.244 98.7905 136.187 101.085 119.834C101.918 113.892 102.816 108.959 103.043 108.891C103.271 108.823 105.613 109.749 108.201 110.96C114.702 113.967 118.929 115.359 120.681 115.049C122.07 114.809 122.132 114.766 122.316 113.721C122.605 112.236 120.315 108.114 116.636 103.316C115.059 101.259 113.769 99.4148 113.827 99.2366C113.833 99.0491 116.692 99.3382 120.119 99.9162C130.075 101.512 139.1 102.432 141.913 102.066C144.114 101.808 145.008 100.403 143.954 98.8971C143.502 98.2515 136.23 94.2735 125.856 88.9398C121.706 86.8063 118.313 84.9679 118.288 84.8019C118.263 84.6359 121.47 82.346 125.377 79.7489C133.477 74.3086 134.719 73.0729 133.883 71.5513C133.274 70.4201 132.785 70.4416 123.453 71.5692C115.408 72.5738 112.427 72.8288 112.19 72.4907C112.104 72.3677 112.596 71.1074 113.291 69.6136C113.976 68.172 115.526 64.8892 116.758 62.3318C120.574 54.303 124.149 45.8009 124.681 43.5508C125.102 41.9279 125.075 41.1686 124.623 40.5231C124.106 39.7853 123.793 39.73 122.655 40.068ZM121.711 45.7208C120.147 49.7014 115.249 60.5027 112.452 66.1247C110.091 70.7999 109.371 73.0438 109.995 73.9353C110.727 74.9804 114.36 75.0022 121.842 73.979C126.004 73.4474 129.803 72.9866 130.283 73.0173C131.033 73.042 131.045 73.125 130.105 73.8749C129.542 74.3145 125.967 76.8625 122.177 79.5612L115.26 84.4021L115.749 85.2966C116.118 85.9545 119.662 88.008 128.563 92.6778C135.347 96.2192 141.006 99.2658 141.135 99.4502C141.264 99.6347 141.28 99.8529 141.157 99.939C140.573 100.348 126.525 98.7301 119.283 97.4786C114.894 96.7037 111.156 96.2056 110.91 96.3777C109.865 97.1092 110.224 97.8193 115.388 105.197C118.207 109.224 120.429 112.661 120.34 112.86C119.995 113.743 115.348 112.141 108.149 108.661C103.833 106.552 102.318 106.284 101.264 107.526C100.796 108.036 99.9507 112.521 98.6653 121.023C97.6475 128.01 96.6758 133.82 96.5221 133.927C95.8151 134.422 93.679 129.734 89.1334 117.94C84.7538 106.578 84.6893 106.486 82.6604 107.906C82.1071 108.293 79.9675 110.799 77.9356 113.457C72.811 120.204 68.7655 124.959 68.5073 124.59C68.1846 124.129 69.0548 118.894 70.5614 112.344C72.1356 105.563 72.1664 104.626 71.1029 104.088C69.9133 103.501 67.9245 103.931 57.0704 107.268C42.2879 111.798 35.5068 113.43 34.8829 112.539C34.4741 111.955 37.0378 109.794 49.6013 100.13C55.1161 95.9042 58.9064 92.7475 59.2476 92.1881C60.631 89.8459 58.4886 87.6356 51.339 84.0296C43.673 80.1438 40.0367 78.1548 40.092 77.8412C40.1259 77.4969 42.0347 77.6723 49.6272 78.7701C56.2267 79.6926 58.068 79.6405 58.6459 78.5032C59.9402 75.9027 57.8319 68.7682 50.1422 49.6021C47.0872 42.031 46.116 39.1384 46.5156 38.8587C46.8537 38.622 46.9183 38.7142 58.4724 49.7255C69.8143 60.5647 71.7477 62.28 73.7918 63.3683C76.8471 64.9853 78.0706 63.8542 84.1974 53.5663C88.8886 45.6114 90.7331 42.9464 91.603 42.7497C92.5651 42.4885 93.1244 45.5778 93.8093 55.1284C94.396 63.557 94.694 65.2261 95.5148 65.1554C95.7023 65.1616 96.52 64.4977 97.3346 63.6985C100.157 60.9906 120.971 43.3539 122.296 42.564C122.984 42.1737 122.92 42.5394 121.711 45.7208Z" fill="black"/>
</g>
<g filter="url(#filter2_d_237_179)">
<path d="M101.34 73.6734C97.061 69.9814 89.6746 67.4112 83.8496 67.5953C80.9171 67.7243 76.5522 68.9474 73.6319 70.5334C65.3936 74.9255 63.9206 86.1696 70.5813 93.9192C77.3587 101.77 90.3733 105.119 98.2857 101.046C104.633 97.7482 108.449 90.6354 107.401 83.9036C107.035 81.549 106.728 80.8481 104.991 78.1707C103.719 76.2218 102.391 74.5864 101.34 73.6734ZM104.889 84.2416C105.304 86.9282 104.591 90.8166 103.161 93.4201C102.07 95.3289 101.673 95.7438 98.7531 97.7878C95.8021 99.8533 95.3072 100.062 93.0571 100.446C90.2045 100.886 84.9298 100.089 81.3057 98.6413C68.5956 93.5687 64.4958 79.859 73.7178 73.4044C77.714 70.6074 84.4121 68.9878 88.697 69.7442C90.9655 70.1716 96.7043 73.0706 99.0372 74.9643C101.53 77.0208 104.499 81.721 104.889 84.2416Z" fill="black"/>
</g>
<path d="M94.0387 84.9666C93.4147 84.5331 92.1267 85.572 92.2189 86.4235C92.4001 87.9912 94.5764 88.0251 94.8532 86.4574C94.9731 85.7781 94.7672 85.4185 94.0387 84.9666Z" fill="black"/>
<path d="M82.656 78.3233C81.5586 78.5876 81.1098 79.4514 81.5985 80.3459C82.1425 81.3849 83.5227 81.1975 83.8301 80.0663C84.0699 79.1657 83.3599 78.1512 82.656 78.3233Z" fill="black"/>
<path d="M84.6654 91.2058C82.7349 92.8318 82.2615 93.0715 81.3025 93.01C80.3434 92.9485 80.1313 92.7763 79.9039 91.9279C79.6949 90.975 80.067 89.02 80.771 87.4739C81.0385 86.8745 80.9739 86.7823 80.3899 86.7331C79.3571 86.6316 77.9921 89.3273 78.0965 91.1778C78.2592 94.224 80.6537 95.6166 83.4449 94.3042C84.7728 93.6496 86.8171 91.5318 87.1368 90.4836C87.4935 89.2264 86.811 89.4292 84.6654 91.2058Z" fill="black"/>
</g>
<defs>
<filter id="filter0_d_237_179" x="0.0449219" y="0" width="160.912" height="172.359" filterUnits="userSpaceOnUse" color-interpolation-filters="sRGB">
<feFlood flood-opacity="0" result="BackgroundImageFix"/>
<feColorMatrix in="SourceAlpha" type="matrix" values="0 0 0 0 0 0 0 0 0 0 0 0 0 0 0 0 0 0 127 0" result="hardAlpha"/>
<feOffset dy="12.5815"/>
<feComposite in2="hardAlpha" operator="out"/>
<feColorMatrix type="matrix" values="0 0 0 0 0 0 0 0 0 0 0 0 0 0 0 0 0 0 0.25 0"/>
<feBlend mode="normal" in2="BackgroundImageFix" result="effect1_dropShadow_237_179"/>
<feBlend mode="normal" in="SourceGraphic" in2="effect1_dropShadow_237_179" result="shape"/>
</filter>
<filter id="filter1_d_237_179" x="32.2393" y="35.8022" width="112.156" height="104.364" filterUnits="userSpaceOnUse" color-interpolation-filters="sRGB">
<feFlood flood-opacity="0" result="BackgroundImageFix"/>
<feColorMatrix in="SourceAlpha" type="matrix" values="0 0 0 0 0 0 0 0 0 0 0 0 0 0 0 0 0 0 127 0" result="hardAlpha"/>
<feOffset dy="3.14537"/>
<feComposite in2="hardAlpha" operator="out"/>
<feColorMatrix type="matrix" values="0 0 0 0 0 0 0 0 0 0 0 0 0 0 0 0 0 0 0.25 0"/>
<feBlend mode="normal" in2="BackgroundImageFix" result="effect1_dropShadow_237_179"/>
<feBlend mode="normal" in="SourceGraphic" in2="effect1_dropShadow_237_179" result="shape"/>
</filter>
<filter id="filter2_d_237_179" x="66.3916" y="67.5859" width="41.1816" height="38.3475" filterUnits="userSpaceOnUse" color-interpolation-filters="sRGB">
<feFlood flood-opacity="0" result="BackgroundImageFix"/>
<feColorMatrix in="SourceAlpha" type="matrix" values="0 0 0 0 0 0 0 0 0 0 0 0 0 0 0 0 0 0 127 0" result="hardAlpha"/>
<feOffset dy="3.14537"/>
<feComposite in2="hardAlpha" operator="out"/>
<feColorMatrix type="matrix" values="0 0 0 0 0 0 0 0 0 0 0 0 0 0 0 0 0 0 0.25 0"/>
<feBlend mode="normal" in2="BackgroundImageFix" result="effect1_dropShadow_237_179"/>
<feBlend mode="normal" in="SourceGraphic" in2="effect1_dropShadow_237_179" result="shape"/>
</filter>
</defs>
</svg>
