<svg width="194" height="214" viewBox="0 0 194 214" fill="none" xmlns="http://www.w3.org/2000/svg">
<g filter="url(#filter0_d_300_320)">
<path d="M82.9548 36.4462V72.8923L67.8123 63.3846C59.4839 58.3138 51.6602 53.8769 50.146 53.8769C44.3413 53.8769 48.3794 63.7015 59.2315 75.7446C67.0551 84.3015 69.8313 89.0554 67.5599 90.0061C65.5409 90.9569 50.6507 96.0277 33.9939 101.098C2.95176 110.606 -3.35762 114.726 1.43751 120.748C3.20414 122.966 15.3182 122.015 42.3223 116.945C63.5219 113.142 81.4405 110.923 82.1977 111.874C82.9548 113.142 78.6644 124.234 72.8598 136.911C66.8028 149.588 61.7553 160.997 61.2505 161.948C60.7458 163.215 62.0076 165.751 63.7743 167.652C66.8028 170.822 69.3265 169.237 77.4025 160.363C82.9548 154.025 88.507 148.954 89.7689 148.954C91.0308 148.954 93.5546 158.462 95.5736 170.188C99.864 197.443 102.892 206 108.445 206C115.259 206 116.521 196.175 114.502 159.729C113.492 141.348 113.492 126.769 114.754 126.769C116.016 126.769 126.111 131.84 137.216 137.862C159.172 149.905 166.239 151.489 166.239 144.517C166.239 138.178 162.201 133.742 142.768 116.945C133.43 109.338 125.859 102.049 125.859 101.098C125.859 100.148 138.73 94.76 154.377 89.0554C182.391 78.9138 194 72.2585 194 66.5538C194 61.8 178.1 62.7508 152.863 68.4554C140.749 71.3077 129.897 72.8923 129.14 71.6246C128.382 70.6738 130.149 62.4338 133.178 53.56C144.534 19.0154 137.468 15.8461 119.802 47.8554C113.24 60.2154 106.678 69.0892 105.669 67.5046C104.659 66.2369 101.883 53.56 99.3592 39.6154C94.3117 9.82462 91.0308 0 86.2357 0C83.7119 0 82.9548 8.23999 82.9548 36.4462Z" fill="#F3ABCB"/>
<path d="M83.9548 72.8923V74.701L82.423 73.7392L67.2922 64.2388C67.2904 64.2376 67.2885 64.2365 67.2867 64.2354C63.13 61.7046 59.1091 59.3381 55.9439 57.6065C54.3589 56.7394 53.0019 56.039 51.9561 55.5579C51.4322 55.3169 51.0015 55.138 50.668 55.0214C50.5015 54.9631 50.3706 54.9244 50.2721 54.9011C50.1664 54.8761 50.1314 54.8769 50.146 54.8769C49.5539 54.8769 49.2001 55.0027 48.9922 55.146C48.8005 55.2781 48.648 55.4824 48.5627 55.8352C48.3728 56.6206 48.5632 57.9724 49.3664 59.912C50.9433 63.7203 54.579 69.0874 59.9719 75.0724C63.8898 79.3577 66.6003 82.7498 68.0449 85.2234C68.757 86.4429 69.2299 87.5512 69.3131 88.4919C69.3562 88.9789 69.3006 89.4838 69.0583 89.9402C68.8123 90.4037 68.423 90.7241 67.9675 90.9195C66.8605 91.4353 62.5751 92.957 56.5825 94.9559C50.5176 96.9789 42.6228 99.5169 34.286 102.055C18.7375 106.817 9.5287 110.191 4.79847 113.083C2.4173 114.54 1.38925 115.748 1.09634 116.754C0.827482 117.677 1.10489 118.725 2.21978 120.125C2.26369 120.18 2.43 120.327 2.8978 120.476C3.35033 120.621 3.99056 120.737 4.85286 120.806C6.57564 120.943 9.03419 120.879 12.3265 120.584C18.9017 119.994 28.6428 118.496 42.1378 115.962L42.1458 115.96C52.7584 114.056 62.5555 112.548 69.8008 111.634C73.4209 111.178 76.4178 110.868 78.5659 110.732C79.6361 110.665 80.5202 110.639 81.1743 110.663C81.4977 110.676 81.7988 110.701 82.0512 110.751C82.1769 110.776 82.3202 110.812 82.4604 110.87C82.5847 110.922 82.804 111.03 82.9799 111.251L83.0218 111.303L83.0562 111.361C83.2256 111.645 83.2675 111.953 83.2797 112.168C83.2932 112.404 83.2764 112.66 83.2442 112.918C83.1795 113.435 83.0375 114.074 82.839 114.801C82.4404 116.262 81.781 118.198 80.925 120.467C79.2107 125.012 76.6769 130.976 73.769 137.327L73.7656 137.335L73.7621 137.342C70.7371 143.673 67.9636 149.689 65.8826 154.242C65.2131 155.707 64.6121 157.028 64.0963 158.161C63.0809 160.393 62.3959 161.898 62.1689 162.348C62.1395 162.446 62.1179 162.633 62.1696 162.941C62.2259 163.275 62.3577 163.684 62.5693 164.145C62.9919 165.065 63.6837 166.085 64.5022 166.967C65.1924 167.688 65.7428 168.017 66.2426 168.118C66.7237 168.215 67.3311 168.132 68.2141 167.647C69.1104 167.155 70.2038 166.294 71.6036 164.966C72.9944 163.646 74.6445 161.908 76.6564 159.697C79.4497 156.509 82.2485 153.633 84.5177 151.546C85.651 150.503 86.6675 149.644 87.4944 149.038C87.9064 148.737 88.291 148.484 88.6327 148.302C88.9329 148.142 89.3463 147.954 89.7689 147.954C90.168 147.954 90.4707 148.14 90.6545 148.291C90.8437 148.446 90.9979 148.638 91.1229 148.82C91.3745 149.188 91.6155 149.679 91.8481 150.24C92.3181 151.373 92.8281 152.976 93.3525 154.912C94.4043 158.794 95.5462 164.135 96.5591 170.018L96.5603 170.025L96.5614 170.032C98.7078 183.668 100.526 192.532 102.477 197.977C103.454 200.702 104.432 202.476 105.43 203.559C106.392 204.603 107.363 205 108.445 205C109.849 205 110.888 204.523 111.731 203.321C112.634 202.034 113.342 199.865 113.794 196.403C114.695 189.498 114.514 178.025 113.503 159.785L113.503 159.784C112.998 150.582 112.744 142.321 112.776 136.351C112.792 133.371 112.879 130.937 113.045 129.237C113.127 128.395 113.233 127.686 113.375 127.168C113.444 126.917 113.538 126.643 113.683 126.41C113.805 126.213 114.14 125.769 114.754 125.769C114.967 125.769 115.182 125.817 115.348 125.861C115.532 125.91 115.74 125.977 115.964 126.058C116.414 126.219 116.979 126.451 117.636 126.74C118.955 127.319 120.698 128.149 122.739 129.162C126.822 131.189 132.133 133.968 137.692 136.982L137.696 136.985C148.697 143.018 155.831 146.351 160.183 147.345C162.384 147.848 163.604 147.685 164.252 147.27C164.828 146.901 165.239 146.132 165.239 144.517C165.239 141.659 164.37 139.188 161.032 135.304C157.653 131.372 151.849 126.116 142.125 117.711C137.444 113.897 133.202 110.161 130.125 107.253C128.586 105.799 127.329 104.542 126.45 103.581C126.012 103.102 125.653 102.68 125.398 102.334C125.271 102.163 125.154 101.989 125.065 101.823C124.997 101.696 124.859 101.424 124.859 101.098C124.859 100.796 124.981 100.57 125.057 100.452C125.141 100.324 125.238 100.22 125.319 100.144C125.481 99.9898 125.685 99.8421 125.896 99.7044C126.326 99.4239 126.93 99.0933 127.666 98.724C129.147 97.9813 131.268 97.0304 133.862 95.938C139.055 93.751 146.201 90.9718 154.035 88.1159L154.037 88.1151C168.035 83.0475 177.873 78.8718 184.199 75.2717C187.364 73.4702 189.597 71.842 191.028 70.3565C192.461 68.8691 193 67.6195 193 66.5538C193 66.2822 192.903 66.0434 192.614 65.7937C192.293 65.5162 191.738 65.2368 190.87 65.011C189.135 64.5599 186.482 64.4046 182.945 64.5814C175.902 64.9337 165.686 66.5824 153.089 69.4295C147.013 70.86 141.24 71.976 136.879 72.5757C134.702 72.8749 132.848 73.0497 131.473 73.0653C130.791 73.073 130.184 73.0424 129.698 72.9528C129.456 72.9082 129.206 72.8422 128.978 72.737C128.773 72.6423 128.507 72.4791 128.317 72.1942C128.169 71.988 128.096 71.766 128.055 71.5989C128.008 71.4047 127.984 71.1976 127.973 70.994C127.951 70.5865 127.975 70.0941 128.03 69.5474C128.142 68.4482 128.396 67.0097 128.762 65.348C129.497 62.0195 130.706 57.7072 132.229 53.243C135.06 44.6315 136.727 38.0223 137.373 33.4538C137.697 31.1614 137.756 29.4421 137.603 28.2631C137.439 27.0046 137.088 26.7163 136.975 26.6673C136.861 26.6179 136.409 26.5586 135.373 27.2988C134.403 27.9923 133.181 29.2098 131.719 31.0146C128.804 34.6111 125.084 40.3536 120.681 48.3317C117.386 54.5373 114.083 59.885 111.462 63.4965C110.158 65.2939 108.993 66.7032 108.062 67.5722C107.611 67.993 107.135 68.3645 106.667 68.5511C106.428 68.6465 106.102 68.7298 105.743 68.6649C105.362 68.5958 105.057 68.3793 104.855 68.0873C104.625 67.7791 104.434 67.3096 104.27 66.8516C104.081 66.3241 103.872 65.6445 103.648 64.8416C103.2 63.233 102.675 61.0748 102.106 58.5324C100.966 53.4444 99.6387 46.7748 98.3751 39.7935L98.3733 39.7824C95.8489 24.8833 93.7772 15.0496 91.7537 8.95108C90.7398 5.89531 89.7643 3.86189 88.8051 2.6082C87.8653 1.3797 87.0257 1 86.2357 1L86.2354 0.999954C86.2323 0.999008 86.1974 0.988571 86.1005 1.09219C85.9728 1.22876 85.7933 1.51425 85.6019 2.05943C85.2195 3.14862 84.896 4.95541 84.6448 7.73576C84.1447 13.2697 83.9548 22.3371 83.9548 36.4462V72.8923Z" stroke="black" stroke-width="2"/>
</g>
<defs>
<filter id="filter0_d_300_320" x="0" y="0" width="194" height="213.765" filterUnits="userSpaceOnUse" color-interpolation-filters="sRGB">
<feFlood flood-opacity="0" result="BackgroundImageFix"/>
<feColorMatrix in="SourceAlpha" type="matrix" values="0 0 0 0 0 0 0 0 0 0 0 0 0 0 0 0 0 0 127 0" result="hardAlpha"/>
<feOffset dy="7.76457"/>
<feComposite in2="hardAlpha" operator="out"/>
<feColorMatrix type="matrix" values="0 0 0 0 0.745098 0 0 0 0 0.74902 0 0 0 0 0.705882 0 0 0 1 0"/>
<feBlend mode="normal" in2="BackgroundImageFix" result="effect1_dropShadow_300_320"/>
<feBlend mode="normal" in="SourceGraphic" in2="effect1_dropShadow_300_320" result="shape"/>
</filter>
</defs>
</svg>
