<svg width="161" height="173" viewBox="0 0 161 173" fill="none" xmlns="http://www.w3.org/2000/svg">
<g filter="url(#filter0_d_300_314)">
<rect width="112.826" height="117.442" transform="translate(96.2158) rotate(55.0113)" fill="#BAE6FF"/>
<g filter="url(#filter1_d_300_314)">
<path d="M122.611 40.068C120.987 40.5628 121.018 40.5413 107.314 52.6977C101.762 57.591 97.0654 61.6114 96.9086 61.5837C96.7519 61.556 96.377 58.3376 96.1221 54.4399C95.6 47.0196 94.8656 42.6331 93.9927 41.3205C92.9599 39.845 91.6874 39.7281 89.9967 40.9115C88.2137 42.1594 87.0948 43.7669 81.801 52.6932C77.4603 60.0364 76.3382 61.5087 75.2716 61.2935C73.8915 61.0229 71.5339 58.9633 59.9583 47.9213C53.6603 41.933 47.8786 36.6825 47.0887 36.2736C44.5159 34.8226 43.1356 36.842 44.1283 40.6814C44.4233 41.7572 46.4364 46.9891 48.597 52.3009C54.6025 66.9667 57.6267 76.3914 56.5508 77.1444C56.3049 77.3165 54.23 77.1658 51.8908 76.8337C43.4838 75.619 37.9663 75.1299 36.9857 75.4957C36.2326 75.7938 35.9897 76.1012 35.9251 76.925C35.8513 77.801 36.0234 78.0469 37.2006 79.0091C37.9629 79.5748 42.4537 82.0649 47.172 84.4874C51.8902 86.9098 56.0644 89.2093 56.4579 89.5752C57.6474 90.6203 57.4137 91.3335 55.5324 92.8334C54.5918 93.5834 49.7226 97.3578 44.6996 101.24C32.9569 110.375 31.3092 112.078 32.5356 113.83C33.9556 115.859 38.1976 115.179 55.0704 110.102C62.2664 107.951 68.4727 106.218 68.8385 106.282C69.3918 106.353 69.4225 106.79 69.0136 108.496C67.9375 112.913 65.9603 124.418 66.0893 125.519C66.4181 128.082 68.0103 128.525 70.0699 126.625C70.6909 126.008 73.9125 122.104 77.2725 117.874C80.6018 113.667 83.3961 110.199 83.5006 110.218C83.6052 110.236 84.4565 112.434 85.3693 115.047C87.6036 121.315 91.7897 131.025 93.7261 134.25C95.1122 136.623 95.3366 136.878 96.2864 136.992C98.4781 137.244 98.7456 136.187 101.04 119.834C101.873 113.892 102.771 108.959 102.998 108.891C103.226 108.823 105.568 109.749 108.156 110.96C114.657 113.967 118.884 115.359 120.636 115.049C122.025 114.809 122.087 114.766 122.271 113.721C122.56 112.236 120.27 108.114 116.591 103.316C115.015 101.259 113.724 99.4148 113.782 99.2366C113.788 99.0491 116.647 99.3382 120.074 99.9162C130.03 101.512 139.055 102.432 141.868 102.066C144.069 101.808 144.963 100.403 143.909 98.8971C143.457 98.2515 136.185 94.2735 125.811 88.9398C121.661 86.8063 118.268 84.9679 118.243 84.8019C118.218 84.6359 121.425 82.346 125.332 79.7489C133.432 74.3086 134.674 73.0729 133.838 71.5513C133.229 70.4201 132.74 70.4416 123.408 71.5692C115.364 72.5738 112.382 72.8288 112.145 72.4907C112.059 72.3677 112.551 71.1074 113.246 69.6136C113.931 68.172 115.481 64.8892 116.714 62.3318C120.529 54.303 124.104 45.8009 124.636 43.5508C125.057 41.9279 125.03 41.1686 124.578 40.5231C124.061 39.7853 123.748 39.73 122.611 40.068ZM121.667 45.7208C120.102 49.7014 115.204 60.5027 112.407 66.1247C110.046 70.7999 109.326 73.0438 109.95 73.9353C110.682 74.9804 114.315 75.0022 121.797 73.979C125.959 73.4474 129.758 72.9866 130.238 73.0173C130.988 73.042 131 73.125 130.06 73.8749C129.497 74.3145 125.922 76.8625 122.132 79.5612L115.215 84.4021L115.704 85.2966C116.073 85.9545 119.617 88.008 128.519 92.6778C135.302 96.2192 140.961 99.2658 141.09 99.4502C141.219 99.6347 141.235 99.8529 141.112 99.939C140.528 100.348 126.48 98.7301 119.238 97.4786C114.849 96.7037 111.111 96.2056 110.865 96.3777C109.82 97.1092 110.18 97.8193 115.343 105.197C118.162 109.224 120.384 112.661 120.295 112.86C119.95 113.743 115.303 112.141 108.104 108.661C103.788 106.552 102.273 106.284 101.219 107.526C100.751 108.036 99.9058 112.521 98.6204 121.023C97.6026 128.01 96.6309 133.82 96.4772 133.927C95.7702 134.422 93.6341 129.734 89.0885 117.94C84.7089 106.578 84.6443 106.486 82.6155 107.906C82.0622 108.293 79.9226 110.799 77.8906 113.457C72.7661 120.204 68.7206 124.959 68.4624 124.59C68.1397 124.129 69.0099 118.894 70.5165 112.344C72.0907 105.563 72.1215 104.626 71.0579 104.088C69.8684 103.501 67.8796 103.931 57.0255 107.268C42.243 111.798 35.4619 113.43 34.838 112.539C34.4292 111.955 36.9929 109.794 49.5564 100.13C55.0712 95.9042 58.8615 92.7475 59.2027 92.1881C60.5861 89.8459 58.4437 87.6356 51.2941 84.0296C43.6281 80.1438 39.9918 78.1548 40.0471 77.8412C40.081 77.4969 41.9898 77.6723 49.5822 78.7701C56.1818 79.6926 58.023 79.6405 58.601 78.5032C59.8953 75.9027 57.787 68.7682 50.0972 49.6021C47.0422 42.031 46.0711 39.1384 46.4707 38.8587C46.8088 38.622 46.8734 38.7142 58.4274 49.7255C69.7694 60.5647 71.7028 62.28 73.7469 63.3683C76.8022 64.9853 78.0257 63.8542 84.1525 53.5663C88.8437 45.6114 90.6882 42.9464 91.5581 42.7497C92.5202 42.4885 93.0795 45.5778 93.7644 55.1284C94.351 63.557 94.6491 65.2261 95.4698 65.1554C95.6573 65.1616 96.475 64.4977 97.2897 63.6985C100.112 60.9906 120.926 43.3539 122.251 42.564C122.939 42.1737 122.875 42.5394 121.667 45.7208Z" fill="black"/>
</g>
<g filter="url(#filter2_d_300_314)">
<path d="M101.295 73.6731C97.0161 69.9812 89.6297 67.411 83.8047 67.5951C80.8722 67.724 76.5072 68.9472 73.587 70.5331C65.3487 74.9252 63.8757 86.1694 70.5363 93.919C77.3138 101.77 90.3284 105.118 98.2408 101.046C104.589 97.7479 108.404 90.6352 107.356 83.9034C106.99 81.5487 106.683 80.8479 104.946 78.1704C103.674 76.2215 102.346 74.5861 101.295 73.6731ZM104.844 84.2413C105.259 86.9279 104.546 90.8163 103.116 93.4198C102.025 95.3286 101.628 95.7436 98.7082 97.7876C95.7571 99.853 95.2622 100.062 93.0121 100.446C90.1596 100.886 84.8848 100.089 81.2608 98.6411C68.5506 93.5685 64.4509 79.8587 73.6729 73.4041C77.6691 70.6071 84.3671 68.9876 88.6521 69.744C90.9206 70.1714 96.6593 73.0704 98.9923 74.964C101.485 77.0206 104.454 81.7207 104.844 84.2413Z" fill="black"/>
</g>
<path d="M93.9938 84.9666C93.3698 84.5331 92.0818 85.572 92.174 86.4235C92.3552 87.9912 94.5315 88.0251 94.8083 86.4574C94.9282 85.7781 94.7223 85.4185 93.9938 84.9666Z" fill="black"/>
<path d="M82.6111 78.3231C81.5137 78.5874 81.0649 79.4511 81.5536 80.3456C82.0976 81.3846 83.4778 81.1972 83.7852 80.0661C84.025 79.1654 83.315 78.151 82.6111 78.3231Z" fill="black"/>
<path d="M84.6205 91.2058C82.69 92.8318 82.2166 93.0715 81.2575 93.01C80.2985 92.9485 80.0864 92.7763 79.859 91.9279C79.65 90.975 80.0221 89.02 80.7261 87.4739C80.9935 86.8745 80.929 86.7823 80.3449 86.7331C79.3121 86.6316 77.9472 89.3273 78.0516 91.1778C78.2143 94.224 80.6088 95.6166 83.3999 94.3042C84.7279 93.6496 86.7721 91.5318 87.0919 90.4836C87.4485 89.2264 86.7661 89.4292 84.6205 91.2058Z" fill="black"/>
</g>
<defs>
<filter id="filter0_d_300_314" x="0" y="0" width="160.912" height="172.359" filterUnits="userSpaceOnUse" color-interpolation-filters="sRGB">
<feFlood flood-opacity="0" result="BackgroundImageFix"/>
<feColorMatrix in="SourceAlpha" type="matrix" values="0 0 0 0 0 0 0 0 0 0 0 0 0 0 0 0 0 0 127 0" result="hardAlpha"/>
<feOffset dy="12.5815"/>
<feComposite in2="hardAlpha" operator="out"/>
<feColorMatrix type="matrix" values="0 0 0 0 0 0 0 0 0 0 0 0 0 0 0 0 0 0 0.25 0"/>
<feBlend mode="normal" in2="BackgroundImageFix" result="effect1_dropShadow_300_314"/>
<feBlend mode="normal" in="SourceGraphic" in2="effect1_dropShadow_300_314" result="shape"/>
</filter>
<filter id="filter1_d_300_314" x="32.1943" y="35.8022" width="112.156" height="104.364" filterUnits="userSpaceOnUse" color-interpolation-filters="sRGB">
<feFlood flood-opacity="0" result="BackgroundImageFix"/>
<feColorMatrix in="SourceAlpha" type="matrix" values="0 0 0 0 0 0 0 0 0 0 0 0 0 0 0 0 0 0 127 0" result="hardAlpha"/>
<feOffset dy="3.14537"/>
<feComposite in2="hardAlpha" operator="out"/>
<feColorMatrix type="matrix" values="0 0 0 0 0 0 0 0 0 0 0 0 0 0 0 0 0 0 0.25 0"/>
<feBlend mode="normal" in2="BackgroundImageFix" result="effect1_dropShadow_300_314"/>
<feBlend mode="normal" in="SourceGraphic" in2="effect1_dropShadow_300_314" result="shape"/>
</filter>
<filter id="filter2_d_300_314" x="66.3467" y="67.5859" width="41.1816" height="38.347" filterUnits="userSpaceOnUse" color-interpolation-filters="sRGB">
<feFlood flood-opacity="0" result="BackgroundImageFix"/>
<feColorMatrix in="SourceAlpha" type="matrix" values="0 0 0 0 0 0 0 0 0 0 0 0 0 0 0 0 0 0 127 0" result="hardAlpha"/>
<feOffset dy="3.14537"/>
<feComposite in2="hardAlpha" operator="out"/>
<feColorMatrix type="matrix" values="0 0 0 0 0 0 0 0 0 0 0 0 0 0 0 0 0 0 0.25 0"/>
<feBlend mode="normal" in2="BackgroundImageFix" result="effect1_dropShadow_300_314"/>
<feBlend mode="normal" in="SourceGraphic" in2="effect1_dropShadow_300_314" result="shape"/>
</filter>
</defs>
</svg>
